<svg width="270" height="249" viewBox="0 0 270 249" fill="none" xmlns="http://www.w3.org/2000/svg">
<path d="M102.298 236.076C87.9242 241.169 73.4113 243.522 57.9311 240.581C40.6768 237.301 25.711 222.535 17.2548 207.81C14.1129 202.34 11.6115 196.229 11.9384 189.931C12.6989 175.382 26.4437 173.756 38.1109 176.109C44.6877 177.432 50.7266 180.445 56.6969 183.428C66.6091 188.385 78.2363 190.823 87.1229 197.693C90.1048 200.005 92.3442 202.783 95.8092 204.465C101.199 207.084 107.352 208.32 112.888 210.703C117.615 212.748 122.898 216.112 122.905 221.26C122.906 226.54 117.398 229.904 112.558 232.006C109.132 233.503 105.722 234.869 102.298 236.076Z" fill="url(#paint0_linear)"/>
<path d="M49.3907 48.411C72.9369 13.711 121.626 -0.221727 161.092 12.8247C180.122 19.1191 196.071 32.2257 210.782 45.8315C223.748 57.8233 236.328 70.7574 245.183 86.1735C251.229 96.6962 255.557 109.31 258.613 121.086C263.181 138.718 259.032 161.437 236.24 159.772C230.892 159.382 226.266 157.459 221.264 155.777C217.219 154.413 213.254 155.231 209.054 154.565C198.481 152.891 188.296 148.998 178.665 144.439C159.037 135.139 141.103 122.504 120.917 114.354C104.375 107.684 86.7095 104.241 68.8732 104.209C61.3485 104.197 53.4365 104.723 46.7054 101.359C30.1152 93.0581 37.5757 70.676 43.7716 58.0852C45.4131 54.7314 47.2909 51.4986 49.3907 48.411Z" fill="url(#paint1_linear)"/>
<path d="M234.007 53.6485C237.883 57.1595 253.114 66.7442 253.407 55.4964C253.476 52.6944 252.205 49.9737 250.475 47.9216C248.497 45.5662 246.253 44.3307 244.708 41.5866C242.817 38.2733 240.665 35.1593 238.279 32.2849C233.401 26.3022 227.706 20.7744 220.797 18.3115C215.95 16.586 207.745 17.02 205.443 23.2312C202.089 32.2731 216.43 33.9298 220.803 37.225C224.954 40.344 227.304 45.7032 230.592 49.9625C231.631 51.3055 232.774 52.5394 234.007 53.6485Z" fill="url(#paint2_linear)"/>
<path d="M162.324 42.6508C170.535 47.4851 176.694 54.721 184.18 60.5487C196.644 70.2496 213.727 72.2342 228.02 78.9805C242.594 85.8638 253.598 96.5611 258.574 111.979C265.002 131.88 265.613 155.546 260.152 176.005C254.137 198.526 240.014 213.485 219.363 223.461C198.725 233.432 175.862 238.085 153.059 239.045C150.859 239.139 148.662 239.19 146.456 239.204C96.919 239.492 30.9818 222.055 14.1164 168.84C13.9618 168.353 13.8136 167.867 13.6651 167.374C11.9272 161.445 10.9054 155.33 10.6215 149.158C9.56065 127.279 13.39 103.129 21.0608 82.618C26.2201 68.8092 37.3298 57.1333 49.0364 48.814C65.4842 37.1263 85.5529 34.1436 105.527 32.7412C120.318 31.7035 136.953 31.3243 150.94 36.9818C154.871 38.5844 158.676 40.4794 162.324 42.6508Z" fill="url(#paint3_linear)"/>
<path d="M193.966 233.121C130.471 251.583 80.419 235.143 61.8996 223.934L44.7029 210.746L50.6556 200.856L87.6946 197.559L149.206 194.262L198.812 204.153L208.31 199.323L210.004 216.823C212.262 230.372 210.568 226.985 193.966 233.121Z" fill="#FB4C47"/>
<path d="M75.9011 225.279H184.631C184.631 225.279 194.314 144.156 179.999 136.244C165.686 128.332 98.7527 129.986 83.9173 136.743C69.082 143.5 75.9011 225.279 75.9011 225.279Z" fill="#FB4C47"/>
<path d="M80.9216 119.158C80.7 119.158 80.476 119.076 80.3026 118.909C80.2062 118.82 70.8195 109.695 77.2917 93.63C79.5607 87.9968 81.6732 84.0396 83.5351 80.5503C86.8977 74.254 89.3257 69.7036 90.4409 59.6816C90.4963 59.1872 90.9492 58.84 91.4381 58.8834C91.9343 58.9388 92.2908 59.3874 92.2354 59.8817C91.0816 70.251 88.4537 75.1727 85.1297 81.4039C83.287 84.8523 81.2011 88.7637 78.9658 94.3052C72.9512 109.239 81.4564 117.513 81.5407 117.597C81.9044 117.94 81.9213 118.511 81.5768 118.873C81.401 119.061 81.1625 119.158 80.9216 119.158Z" fill="#000C3E"/>
<path d="M141.308 23.6805C141.05 30.5459 135.284 35.9041 128.426 35.6461C121.568 35.3881 116.216 29.615 116.474 22.7496C116.732 15.8842 122.498 10.526 129.356 10.784C136.213 11.0421 141.566 16.8151 141.308 23.6805Z" fill="#000C3E"/>
<path d="M80.0869 114.342C80.0869 114.342 83.187 122.109 97.8464 125.813C112.506 129.517 124.545 124.972 135.709 129.954C146.876 134.938 163.824 130.699 167.451 126.112C171.076 121.526 174.203 68.0759 165.804 58.4759C157.405 48.8735 110.581 38.0099 99.5687 47.7546C88.556 57.4993 74.0073 107.862 80.0869 114.342Z" fill="#000C3E"/>
<path d="M172.212 75.2891C171.364 97.9133 152.359 115.568 129.758 114.721C107.16 113.872 86.1843 93.8308 87.0322 71.2065C87.8776 48.5823 107.061 32.1579 129.659 33.0067C152.261 33.8531 173.06 52.6649 172.212 75.2891Z" fill="#000C3E"/>
<path d="M148.088 109.566C148.088 109.566 150.745 141.491 148.088 145.038C145.431 148.585 128.599 145.926 124.172 145.038C119.742 144.153 117.969 109.566 120.629 109.566C123.285 109.566 147.578 102.447 148.088 109.566Z" fill="#FFCEB0"/>
<path d="M97.859 72.2164C97.859 72.2164 99.5427 121.977 133.147 124.125C166.751 126.274 166.717 56.1634 154.556 49.4958C142.394 42.8257 91.6469 44.0772 97.859 72.2164Z" fill="#FFCEB0"/>
<path d="M137.794 82.8689C137.794 82.8689 144.211 98.184 142.561 99.1992C140.909 100.214 136.077 100.034 134.774 98.9074C133.47 97.7813 135.169 81.1544 137.794 82.8689Z" fill="#EE9B68"/>
<path d="M124.319 45.6802C124.319 45.6802 112.27 51.5135 109.977 62.4639C107.684 73.4167 108.872 101.457 96.1053 100.169C96.1053 100.169 71.3845 44.677 124.319 45.6802Z" fill="#000C3E"/>
<path d="M130.671 45.9182C129.578 46.7019 143.095 46.6706 150.823 56.0487C158.552 65.4269 160.388 88.8662 161.582 89.3026C162.777 89.7367 167.549 60.2567 159.077 51.3994C150.603 42.5446 136.893 41.4594 130.671 45.9182Z" fill="#000C3E"/>
<path d="M121.093 119.588C121.093 119.588 134.168 127.03 147.744 120.075C147.744 120.075 148.799 128.428 147.744 130.355C146.686 132.282 125.186 133.659 120.954 124.163C120.954 124.163 119.872 119.176 121.093 119.588Z" fill="#EE9B68"/>
<path d="M158.394 91.289C158.394 91.289 161.036 78.8097 165.444 83.1985C169.85 87.5874 165.728 100.641 161.33 101.866C156.932 103.091 155.92 97.7324 158.394 91.289Z" fill="#FFCEB0"/>
<path d="M105.683 89.312C105.683 89.312 103.407 76.6494 97.4787 80.65C91.5508 84.6506 95.6408 98.0125 101.085 99.6065C106.526 101.198 108.258 95.9459 105.683 89.312Z" fill="#FFCEB0"/>
<path d="M144.829 75.8673C144.829 75.8673 150.408 72.1175 154.524 76.2145C158.142 79.8173 150.497 77.3986 147.859 78.1968C145.222 78.9925 141.645 79.1469 144.829 75.8673Z" fill="#41294A"/>
<path d="M130.118 76.753C130.118 76.753 124.77 72.6801 120.42 76.5263C116.595 79.9096 124.371 77.9467 126.955 78.8992C129.54 79.8493 133.105 80.2158 130.118 76.753Z" fill="#41294A"/>
<path d="M124.309 80.8506C119.085 80.8506 114.838 84.9476 114.643 90.1781C114.443 95.517 118.62 100.024 123.955 100.224L124.324 100.231C129.548 100.231 133.795 96.1344 133.99 90.9039C134.086 88.3164 133.171 85.8471 131.413 83.9493C129.654 82.0515 127.262 80.9543 124.68 80.8578L124.309 80.8506ZM124.324 101.437C124.187 101.437 124.049 101.435 123.91 101.43C117.912 101.203 113.215 96.1368 113.439 90.1323C113.665 84.1133 118.702 79.4375 124.724 79.6521C127.629 79.7606 130.319 80.9953 132.294 83.1294C134.272 85.2635 135.3 88.0391 135.194 90.9473C134.973 96.8289 130.199 101.437 124.324 101.437Z" fill="#FFFCF6"/>
<path d="M114.045 90.7581C113.968 90.7581 113.891 90.7436 113.814 90.7122L104.706 86.9359C104.4 86.8081 104.253 86.4536 104.381 86.1474C104.509 85.8387 104.86 85.6916 105.166 85.8218L114.276 89.5981C114.582 89.726 114.729 90.078 114.601 90.3867C114.505 90.6182 114.281 90.7581 114.045 90.7581Z" fill="#FFFCF6"/>
<path d="M135.191 50.2939C135.191 50.2939 133.827 69.6144 141.254 72.062C148.68 74.5121 163.021 74.2661 163.903 71.3145C164.784 68.3653 149.744 44.6246 138.951 40.8169C120.025 34.142 102.774 62.0786 104.935 69.5011C107.095 76.9259 129.643 73.8947 133.112 72.9398C136.583 71.9849 134.497 55.6256 135.191 50.2939Z" fill="#000C3E"/>
<path d="M135.191 90.9497C134.88 90.9497 134.615 90.7086 134.591 90.3927C134.567 90.0599 134.815 89.7705 135.145 89.744L141.273 89.2786C141.61 89.2641 141.894 89.5004 141.921 89.8356C141.945 90.166 141.697 90.4554 141.364 90.4819L135.239 90.9497C135.222 90.9497 135.205 90.9497 135.191 90.9497Z" fill="#FFFCF6"/>
<path d="M121.128 35.5763C120.988 35.5763 120.848 35.5449 120.716 35.475C117.108 33.6134 114.954 31.0162 114.323 27.7608C112.929 20.5988 119.439 12.9038 119.719 12.5807C120.044 12.2021 120.612 12.1611 120.991 12.4818C121.371 12.8074 121.415 13.3789 121.089 13.7575C121.027 13.8298 114.865 21.1196 116.096 27.4208C116.619 30.1023 118.452 32.2726 121.542 33.869C121.985 34.0981 122.161 34.6431 121.932 35.0868C121.771 35.3978 121.455 35.5763 121.128 35.5763Z" fill="#000C3E"/>
<path d="M135.462 37.7919C135.204 37.7919 134.946 37.6809 134.768 37.4687C134.448 37.0853 134.498 36.5138 134.881 36.1931C134.956 36.1328 142.228 29.9547 142.047 23.5378C141.97 20.8056 140.52 18.3628 137.733 16.2817C137.333 15.9827 137.251 15.416 137.55 15.0157C137.846 14.6178 138.417 14.5334 138.812 14.8324C142.067 17.2632 143.762 20.1786 143.854 23.4944C144.054 30.789 136.367 37.3072 136.04 37.5821C135.871 37.7219 135.664 37.7919 135.462 37.7919Z" fill="#000C3E"/>
<path d="M164.34 124.287C164.048 124.287 163.762 124.145 163.588 123.885C163.309 123.47 163.422 122.91 163.836 122.631C164.195 122.387 172.689 116.551 171.359 105.591C170.841 101.313 169.67 96.5412 168.43 91.4868C166.274 82.6898 164.041 73.5938 164.605 65.0139C164.636 64.5171 165.079 64.1168 165.566 64.1699C166.065 64.2036 166.44 64.6329 166.407 65.132C165.862 73.4347 168.059 82.3908 170.186 91.0551C171.436 96.1626 172.621 100.988 173.151 105.372C174.62 117.461 165.238 123.868 164.838 124.135C164.687 124.237 164.511 124.287 164.34 124.287Z" fill="#000C3E"/>
<path d="M172.131 79.4318C172.091 79.4318 172.05 79.4294 172.004 79.4221C171.51 79.3522 171.168 78.8964 171.238 78.4021C173.211 64.3915 169.272 53.2747 159.536 45.3628C152.252 39.4427 144.313 37.6365 144.234 37.6196C143.747 37.5135 143.439 37.0312 143.547 36.5417C143.653 36.0546 144.137 35.7483 144.624 35.8544C144.956 35.9268 177.958 43.6386 173.025 78.6529C172.962 79.1062 172.577 79.4318 172.131 79.4318Z" fill="#000C3E"/>
<path d="M139.458 114.903C137.623 114.903 136.202 114.32 136.11 114.281C135.653 114.088 135.436 113.56 135.628 113.1C135.819 112.641 136.346 112.424 136.806 112.613C136.835 112.625 139.572 113.727 141.961 112.543C142.409 112.316 142.949 112.499 143.173 112.948C143.394 113.394 143.214 113.936 142.766 114.158C141.641 114.72 140.485 114.903 139.458 114.903Z" fill="#EE9B68"/>
<path d="M102.261 96.4235C102.174 96.4235 102.085 96.4114 101.998 96.3849C101.519 96.2378 101.252 95.7338 101.396 95.2563C103.215 89.2807 98.8646 85.3115 98.8213 85.2705C98.4479 84.9377 98.4166 84.3662 98.749 83.9948C99.079 83.6211 99.6547 83.5873 100.023 83.9201C100.24 84.113 105.277 88.714 103.126 95.782C103.008 96.1727 102.649 96.4235 102.261 96.4235Z" fill="#EE9B68"/>
<path d="M161.356 96.6001C161.334 96.6001 161.313 96.6001 161.294 96.5977C160.795 96.5615 160.419 96.1299 160.455 95.6331C160.865 89.8529 164.471 86.9254 164.622 86.8048C165.02 86.4937 165.576 86.5588 165.889 86.9495C166.2 87.3377 166.135 87.9068 165.75 88.2179C165.718 88.2444 162.609 90.8078 162.257 95.7585C162.223 96.236 161.826 96.6001 161.356 96.6001Z" fill="#EE9B68"/>
<path d="M101.086 139.505C101.086 139.505 132.187 167.135 149.525 159.935C166.861 152.734 171.984 135.818 163.269 133.228C154.555 130.638 87.4571 128.68 101.086 139.505Z" fill="#FFCEB0"/>
<path d="M141.255 111.662C141.154 111.662 141.05 111.646 140.949 111.609C138.119 110.582 136.719 109.331 136.666 107.778C136.582 105.243 140.45 103.466 140.891 103.271C141.344 103.07 141.879 103.275 142.081 103.734C142.281 104.189 142.076 104.725 141.618 104.927C140.33 105.496 138.439 106.779 138.473 107.717C138.494 108.397 139.651 109.215 141.561 109.907C142.03 110.078 142.274 110.597 142.105 111.064C141.97 111.433 141.623 111.662 141.255 111.662Z" fill="#EE9B68"/>
<path d="M126.957 93.0394C126.673 93.0394 126.389 92.9381 126.16 92.738C122.128 89.169 119.321 90.095 119.203 90.1336C118.584 90.3555 117.895 90.0348 117.667 89.4198C117.438 88.8025 117.736 88.1201 118.348 87.8813C118.517 87.8138 122.547 86.3211 127.754 90.9294C128.253 91.3707 128.301 92.1351 127.86 92.6319C127.622 92.902 127.289 93.0394 126.957 93.0394Z" fill="#41294A"/>
<path d="M148.215 93.2649C147.882 93.2649 147.552 93.1274 147.311 92.8574C146.871 92.3582 146.919 91.5962 147.417 91.1549C152.632 86.5418 156.655 88.0393 156.823 88.1068C157.442 88.348 157.751 89.0473 157.507 89.667C157.269 90.2843 156.58 90.5882 155.966 90.3591C155.821 90.3085 153.022 89.4162 149.012 92.9635C148.783 93.1636 148.499 93.2649 148.215 93.2649Z" fill="#41294A"/>
<path d="M223.55 112.263L200.715 105.66L194.031 114.31L177.883 112.603L196.912 121.94L203.555 111.064L223.55 112.263Z" fill="#000C3E"/>
<path d="M203.717 95.6291L189.298 95.8534L186.95 102.058L177.276 103.934L189.973 105.974L191.902 98.4843L203.717 95.6291Z" fill="#000C3E"/>
<path d="M151.53 79.3146C146.305 79.3146 142.059 83.4116 141.864 88.6421C141.664 93.9834 145.84 98.488 151.176 98.6882L151.544 98.6954C156.769 98.6954 161.016 94.5983 161.211 89.3679C161.411 84.029 157.231 79.522 151.898 79.3218L151.53 79.3146ZM151.544 99.9011C151.405 99.9011 151.267 99.8987 151.128 99.8939C145.132 99.6672 140.435 94.6008 140.659 88.5987C140.886 82.5773 145.918 77.9063 151.947 78.1161C157.942 78.3428 162.637 83.4092 162.415 89.4113C162.196 95.2928 157.419 99.9011 151.544 99.9011Z" fill="#FFFCF6"/>
<path d="M116.465 181.965C116.465 181.965 134.774 160.371 150.763 130.963C157.028 119.437 168.766 116.637 169.192 118.253C169.618 119.871 162.371 126.618 162.371 126.618C162.371 126.618 172.03 119.49 173.595 121.814C175.161 124.139 167.275 131.2 167.275 131.2C167.275 131.2 174.308 127.127 177.293 128.834C180.277 130.541 168.978 132.709 169.192 138.651C172.473 229.9 129.487 222.789 129.487 222.789L116.465 181.965Z" fill="#FFBD96"/>
<path d="M134.778 161.274C134.665 161.274 134.549 161.253 134.436 161.207C133.976 161.019 133.754 160.491 133.942 160.028C144.463 134.242 150.936 130.473 151.205 130.326C151.644 130.085 152.19 130.251 152.431 130.685C152.67 131.122 152.511 131.667 152.082 131.908C151.959 131.982 145.718 135.947 135.614 160.712C135.471 161.062 135.132 161.274 134.778 161.274Z" fill="#EE9B68"/>
<path d="M106.854 198.224L44.7807 203.18C44.7807 203.18 42.6972 173.427 51.6504 158.066C60.6036 142.705 85.5652 135.756 89.7396 134.895C93.9139 134.034 106.854 198.224 106.854 198.224Z" fill="#FB4C47"/>
<path d="M178.28 135.38C178.28 135.38 200.62 140.219 204.915 163.874C207.663 178.997 211.52 227.338 211.52 227.338L201.534 231.166L192.358 233.9L173.039 238.275L178.28 135.38Z" fill="#D9423D"/>
<path d="M114.038 178.121C114.038 178.121 140.578 221.635 131.35 222.841C122.122 224.047 75.1517 227.664 62.5059 222.841C49.86 218.018 43.4167 212.052 45.0257 198.775C43.6064 178.121 50.3813 152.837 53.7487 158.562C70.8699 187.67 114.038 178.121 114.038 178.121Z" fill="#D9423D"/>
<path d="M111.388 179.327C93.8521 179.327 77.9762 161.919 77.309 161.178C76.8634 160.684 76.9019 159.92 77.3957 159.476C77.8895 159.03 78.6507 159.068 79.0963 159.563C79.2529 159.736 94.9312 176.916 111.388 176.916C112.052 176.916 112.592 177.456 112.592 178.121C112.592 178.787 112.052 179.327 111.388 179.327Z" fill="#B43936"/>
<path d="M181.789 222.371H181.76C181.096 222.354 180.568 221.802 180.585 221.137C180.592 220.828 181.31 190.188 180.587 176.445C179.908 163.537 176.57 160.638 176.536 160.609C176.032 160.194 175.938 159.445 176.338 158.928C176.733 158.417 177.458 158.299 177.988 158.685C178.422 159.006 182.249 162.206 182.991 176.317C183.721 190.154 183.001 220.886 182.994 221.195C182.977 221.85 182.442 222.371 181.789 222.371Z" fill="#B43936"/>
<path d="M132.501 13.1997C132.184 13.1997 131.84 13.2365 131.467 13.3101C130.558 13.4926 129.969 13.9343 129.616 14.7009C128.039 18.1131 131.363 26.2402 133.738 31.0415C135.206 25.7152 136.965 16.8119 134.479 14.0063C134.001 13.467 133.349 13.1997 132.501 13.1997ZM134.015 35.0491C133.62 35.0491 133.25 34.8362 133.055 34.4841C132.215 32.9781 124.929 19.6031 127.618 13.7791C128.265 12.3787 129.447 11.4696 131.037 11.1527C133.745 10.6134 135.3 11.6137 136.126 12.5467C140.444 17.4217 135.625 32.5812 135.062 34.2937C134.924 34.7082 134.556 35.0027 134.121 35.0443C134.086 35.0475 134.05 35.0491 134.015 35.0491Z" fill="#FFD310"/>
<path d="M147.333 18.612C147.229 18.612 147.124 18.6184 147.018 18.6344C143.3 19.1289 138.808 27.0143 136.433 32.0029C141.37 29.924 149.201 25.9532 150.241 22.3426C150.475 21.5296 150.318 20.811 149.75 20.078C148.985 19.0937 148.193 18.612 147.333 18.612ZM134.322 35.119C134.026 35.119 133.736 35.0006 133.526 34.7797C133.224 34.4628 133.137 33.9987 133.305 33.5954C134 31.9325 140.271 17.314 146.727 16.453C147.964 16.2881 149.793 16.5474 151.486 18.7272C152.482 20.0076 152.783 21.4688 152.356 22.9508C150.579 29.1141 136.317 34.4628 134.698 35.0534C134.575 35.0982 134.448 35.119 134.322 35.119Z" fill="#FFD310"/>
<path d="M113.666 31.2327C119.011 34.6683 131.226 37.3405 140.77 31.2327" stroke="#FFD310" stroke-width="1.63065"/>
<defs>
<linearGradient id="paint0_linear" x1="10.6625" y1="191.939" x2="25.5753" y2="243.72" gradientUnits="userSpaceOnUse">
<stop stop-color="#FFD8D8"/>
<stop offset="1" stop-color="#FFF8F8"/>
</linearGradient>
<linearGradient id="paint1_linear" x1="259.25" y1="79.4149" x2="102.754" y2="-19.379" gradientUnits="userSpaceOnUse">
<stop stop-color="#FFF8F8"/>
<stop offset="1" stop-color="#FFCFCF"/>
</linearGradient>
<linearGradient id="paint2_linear" x1="253.802" y1="55.2992" x2="196.538" y2="30.8404" gradientUnits="userSpaceOnUse">
<stop stop-color="#FFD7D7"/>
<stop offset="1" stop-color="#FFF9F9"/>
</linearGradient>
<linearGradient id="paint3_linear" x1="240.876" y1="216.593" x2="10.6684" y2="83.2801" gradientUnits="userSpaceOnUse">
<stop stop-color="#FFCFCF"/>
<stop offset="1" stop-color="#FFF8F8"/>
</linearGradient>
</defs>
</svg>
