<svg width="275" height="254" viewBox="0 0 275 254" fill="none" xmlns="http://www.w3.org/2000/svg">
<path d="M104.309 240.718C89.6532 245.911 74.8549 248.31 59.0703 245.311C41.4768 241.967 26.2167 226.911 17.5942 211.896C14.3905 206.319 11.84 200.087 12.1733 193.665C12.9488 178.83 26.9638 177.172 38.8604 179.572C45.5665 180.921 51.7242 183.993 57.8119 187.035C67.919 192.089 79.7748 194.575 88.8361 201.58C91.8767 203.938 94.1601 206.77 97.6933 208.485C103.189 211.155 109.463 212.416 115.108 214.846C119.927 216.931 125.315 220.361 125.322 225.61C125.323 230.994 119.706 234.424 114.771 236.567C111.278 238.094 107.801 239.487 104.309 240.718Z" fill="url(#paint0_linear)"/>
<path d="M50.3637 49.3629C74.3729 13.9806 124.019 -0.226113 164.261 13.0769C183.666 19.495 199.928 32.8593 214.928 46.7327C228.15 58.9602 240.976 72.1487 250.006 87.8678C256.171 98.5974 260.584 111.459 263.7 123.466C268.358 141.445 264.127 164.611 240.887 162.913C235.434 162.516 230.716 160.555 225.617 158.84C221.491 157.449 217.449 158.283 213.166 157.604C202.386 155.897 192 151.928 182.18 147.279C162.166 137.796 143.879 124.913 123.297 116.603C106.429 109.802 88.4162 106.29 70.2292 106.258C62.5566 106.245 54.489 106.782 47.6256 103.352C30.7092 94.8878 38.3164 72.0656 44.6341 59.2273C46.3079 55.8076 48.2226 52.5111 50.3637 49.3629Z" fill="url(#paint1_linear)"/>
<path d="M238.61 54.7035C242.563 58.2836 258.093 68.0567 258.392 56.5878C258.462 53.7307 257.166 50.9565 255.403 48.8641C253.385 46.4624 251.097 45.2026 249.522 42.4045C247.594 39.0261 245.399 35.8509 242.966 32.9199C237.993 26.8196 232.186 21.1831 225.14 18.6717C220.199 16.9124 211.832 17.3548 209.485 23.6882C206.065 32.9078 220.687 34.5972 225.147 37.9571C229.379 41.1374 231.776 46.6021 235.128 50.9451C236.188 52.3145 237.353 53.5727 238.61 54.7035Z" fill="url(#paint2_linear)"/>
<path d="M165.516 43.4894C173.888 48.4187 180.169 55.7969 187.802 61.7392C200.511 71.6308 217.93 73.6545 232.504 80.5334C247.364 87.5521 258.585 98.4596 263.659 114.181C270.213 134.473 270.836 158.604 265.268 179.466C259.135 202.429 244.734 217.683 223.677 227.855C202.633 238.022 179.32 242.766 156.069 243.745C153.826 243.841 151.586 243.893 149.337 243.907C98.8253 244.201 31.5916 226.421 14.3946 172.159C14.237 171.664 14.0859 171.168 13.9344 170.665C12.1624 164.62 11.1205 158.384 10.8309 152.091C9.74928 129.781 13.6539 105.157 21.4755 84.2424C26.7363 70.1621 38.0644 58.2566 50.0013 49.7737C66.7724 37.8563 87.2357 34.8149 107.603 33.385C122.684 32.3268 139.646 31.9401 153.908 37.709C157.917 39.3431 161.797 41.2753 165.516 43.4894Z" fill="url(#paint3_linear)"/>
<path d="M187.879 98.9634C187.879 98.9634 187.199 108.556 186.248 122.07C185.499 132.68 184.577 145.708 183.668 158.435C183.448 161.559 183.219 164.657 183.002 167.699C182.483 175.05 181.981 182.057 181.532 188.144C181.138 193.264 180.8 197.747 180.544 201.225C180.203 205.682 179.973 208.508 179.888 208.997C179.389 212.229 169.878 218.504 147.969 218.504C126.07 218.504 113.327 218.845 109.087 213.588C108.451 212.787 107.68 209.676 106.836 204.947C105.002 194.678 102.8 176.816 100.817 158.789C99.5803 147.595 98.412 136.349 97.4603 126.799C95.9802 112.018 94.9891 101.343 94.9891 101.343L121.601 100.663L155.439 99.7936L187.879 98.9634Z" fill="#FB4C47"/>
<path d="M186.25 122.071C185.501 132.68 184.579 145.709 183.67 158.435C175.194 160.733 150.078 165.393 100.819 158.79C99.5823 147.596 98.414 136.349 97.4623 126.799C110.425 128.293 152.412 131.975 186.25 122.071Z" fill="#D9423D"/>
<path d="M180.544 201.226C180.202 205.68 179.973 208.508 179.891 208.997C179.388 212.23 169.878 218.505 147.969 218.505C126.07 218.505 113.33 218.846 109.09 213.588C108.45 212.784 107.679 209.677 106.836 204.948C118.397 207.028 150.916 211.344 180.544 201.226Z" fill="#D9423D"/>
<path d="M190.757 100.16C189.238 101.844 176.849 107.629 143.051 109.316C139.887 109.477 136.829 109.559 133.937 109.572C108.481 109.776 93.7657 105.132 93.4671 104.236C93.1291 103.202 92.4497 96.4092 93.3063 95.5691L93.3194 95.556C94.1366 94.8602 103.834 99.8485 131.735 99.0313C135.175 98.9361 138.88 98.7458 142.887 98.4472C175.721 96.0154 186.248 91.0042 188.936 90.8401C189.251 90.8139 189.455 90.8532 189.579 90.9779C190.757 92.1725 192.293 98.4472 190.757 100.16Z" fill="#FF807C"/>
<path d="M188.898 91.656C187.717 96.083 153.403 104.235 136.597 103.88C135.252 103.854 133.827 103.815 132.347 103.733C115.394 102.958 91.2665 99.4665 93.3044 95.5678L93.3176 95.5547C93.5342 95.2134 100.331 85.2303 127.402 82.4868C129.046 82.3227 130.769 82.1881 132.564 82.0799C133.499 82.0109 134.451 81.9683 135.429 81.9158C135.606 81.9158 135.783 81.9158 135.96 81.9026C136.938 81.86 137.943 81.8337 138.976 81.8206C140.171 81.7943 141.339 81.7812 142.478 81.7812C175.039 81.5482 188.366 86.6973 188.937 90.8388C188.977 91.1243 188.967 91.3967 188.898 91.656Z" fill="#C63F3B"/>
<path d="M150.592 102.734C150.057 103.622 147.198 104.404 143.896 104.808C140.645 105.208 136.942 105.225 134.605 104.598C133.552 104.32 132.77 103.92 132.423 103.378C132.235 103.083 131.959 102.263 131.613 101.047C131.007 98.9565 130.175 95.6837 129.259 91.9018C129.155 91.4517 129.038 90.9974 128.929 90.5262C128.382 88.263 127.809 85.8273 127.22 83.3874C126.856 81.8561 126.472 80.3249 126.112 78.8105C125.903 77.9565 125.698 77.1194 125.506 76.3032C124.762 73.287 124.052 70.4517 123.412 68.1001C122.601 65.0502 121.908 62.787 121.439 61.9372C121.335 61.7605 121.247 61.6385 121.18 61.5881C121.076 61.5166 120.921 61.4829 120.7 61.4492C119.471 61.2557 116.495 61.4492 112.997 61.7101C105.971 62.2317 96.9053 63.0141 96.0944 61.3609C95.5929 60.3345 95.2125 58.0712 95.1122 55.564C94.9199 51.6602 95.3839 47.2052 96.9596 46.1409C98.1549 45.3416 105.005 44.5424 112.478 44.189C116.357 44.0333 120.403 43.9829 123.914 44.1217C128.382 44.2942 131.976 44.7653 133.289 45.6866C133.861 46.0904 134.588 47.3272 135.437 49.174C136.649 51.8032 138.083 55.6482 139.587 60.1241C140.469 62.808 141.389 65.6981 142.308 68.6554C143.203 71.6001 144.084 74.6121 144.92 77.5905C145.058 78.0406 145.175 78.4781 145.297 78.9325C145.455 79.5046 145.631 80.0809 145.786 80.653C146.321 82.6218 146.839 84.5569 147.324 86.3994C147.616 87.5142 147.892 88.5785 148.135 89.6218C148.807 92.251 149.363 94.6194 149.798 96.605C150.504 100.033 150.835 102.318 150.592 102.734Z" fill="#F5C827"/>
<path d="M149.581 96.4323L141.904 98.2354L131.237 100.73C130.63 98.7076 129.791 95.5409 128.868 91.8818L139.252 88.8495L147.086 86.558C148.114 90.3311 148.97 93.7541 149.581 96.4323Z" fill="#FFAE00"/>
<path d="M145.22 78.6676C143.045 79.2254 140.231 79.9663 137.363 80.6855C133.658 81.6443 129.866 82.6162 127.296 83.2874C126.936 81.6966 126.554 80.1102 126.194 78.5412C125.986 77.6565 125.788 76.7892 125.597 75.9437L134.86 71.5418L142.253 68.0247C143.144 71.0711 144.019 74.1916 144.843 77.2773C144.98 77.748 145.1 78.1969 145.22 78.6676Z" fill="#FFAE00"/>
<path d="M139.768 60.2161L132.383 63.7127L123.249 68.0248C122.421 65.0389 121.713 62.8231 121.234 61.9912L129.272 54.965L135.529 49.4915C136.767 52.0656 138.231 55.834 139.768 60.2161Z" fill="#FFAE00"/>
<path d="M123.414 44.1203C122.999 46.5289 122.493 49.4858 121.931 52.5631C121.402 55.4826 120.856 58.4893 120.346 61.226C119.178 61.035 116.341 61.226 113.006 61.4835L112.775 53.1445L112.512 44.1909C116.206 44.033 120.067 43.9832 123.414 44.1203Z" fill="#FFAE00"/>
<g opacity="0.309998">
<g opacity="0.309998">
<path opacity="0.309998" d="M150.206 89.0702C158.404 89.4311 166.516 90.3402 174.59 91.8268C177.153 92.2994 178.252 88.3744 175.673 87.8986C167.242 86.343 158.768 85.3716 150.206 84.9943C147.584 84.8794 147.591 88.9553 150.206 89.0702Z" fill="white"/>
</g>
</g>
<g opacity="0.300003">
<g opacity="0.300003">
<path opacity="0.300003" d="M175.647 119.716C175.181 134.599 174.233 149.449 172.808 164.269C172.556 166.878 176.635 166.861 176.881 164.269C178.312 149.449 179.257 134.599 179.723 119.716C179.805 117.094 175.729 117.094 175.647 119.716Z" fill="#FFC7D3"/>
</g>
<g opacity="0.300003">
<path opacity="0.300003" d="M174.704 175.571C177.326 175.571 177.33 171.495 174.704 171.495C172.082 171.495 172.076 175.571 174.704 175.571Z" fill="#FFC7D3"/>
</g>
</g>
<defs>
<linearGradient id="paint0_linear" x1="10.8723" y1="195.713" x2="26.0784" y2="248.512" gradientUnits="userSpaceOnUse">
<stop stop-color="#FFD0D0"/>
<stop offset="1" stop-color="#FFF7F7"/>
</linearGradient>
<linearGradient id="paint1_linear" x1="294.898" y1="54.5169" x2="124.706" y2="15.2172" gradientUnits="userSpaceOnUse">
<stop stop-color="#FFF7F7"/>
<stop offset="1" stop-color="#FFD0D0"/>
</linearGradient>
<linearGradient id="paint2_linear" x1="258.795" y1="56.3867" x2="200.404" y2="31.447" gradientUnits="userSpaceOnUse">
<stop stop-color="#FFD0D0"/>
<stop offset="1" stop-color="#FFFBFC"/>
</linearGradient>
<linearGradient id="paint3_linear" x1="245.613" y1="220.851" x2="10.8789" y2="84.9175" gradientUnits="userSpaceOnUse">
<stop stop-color="#FFCFCF"/>
<stop offset="1" stop-color="#FFF8F8"/>
</linearGradient>
</defs>
</svg>
