<svg width="284" height="294" viewBox="0 0 284 294" fill="none" xmlns="http://www.w3.org/2000/svg">
<path d="M107.802 280.259C92.6549 285.626 77.3612 288.105 61.0481 285.006C42.8654 281.55 27.0944 265.99 18.1832 250.472C14.8722 244.708 12.2363 238.268 12.5807 231.631C13.3822 216.299 27.8665 214.586 40.1614 217.066C47.0921 218.46 53.4559 221.635 59.7475 224.779C70.193 230.002 82.4458 232.571 91.8105 239.811C94.9529 242.247 97.3128 245.175 100.964 246.947C106.644 249.707 113.128 251.01 118.962 253.521C123.943 255.676 129.511 259.221 129.518 264.646C129.519 270.209 123.714 273.755 118.614 275.97C115.004 277.548 111.41 278.987 107.802 280.259Z" fill="url(#paint0_linear)"/>
<path d="M52.0501 82.4966C76.8631 45.9295 128.172 31.2471 169.761 44.9956C189.816 51.6286 206.623 65.4404 222.125 79.7783C235.789 92.4152 249.045 106.045 258.377 122.291C264.748 133.38 269.309 146.672 272.529 159.081C277.344 177.662 272.971 201.603 248.952 199.849C243.317 199.438 238.442 197.412 233.171 195.639C228.908 194.202 224.73 195.064 220.304 194.362C209.162 192.598 198.429 188.496 188.28 183.691C167.596 173.891 148.697 160.576 127.425 151.988C109.993 144.959 91.3767 141.33 72.5808 141.297C64.6512 141.284 56.3135 141.839 49.2203 138.293C31.7374 129.546 39.5993 105.959 46.1286 92.6913C47.8584 89.157 49.8372 85.7502 52.0501 82.4966Z" fill="url(#paint1_linear)"/>
<path d="M246.597 88.016C250.682 91.7159 266.732 101.816 267.041 89.9634C267.114 87.0106 265.775 84.1435 263.952 81.981C261.867 79.4989 259.502 78.1969 257.874 75.3052C255.881 71.8136 253.613 68.5321 251.099 65.503C245.959 59.1984 239.958 53.3731 232.676 50.7777C227.569 48.9594 218.922 49.4167 216.496 55.9621C212.962 65.4905 228.074 67.2364 232.683 70.7089C237.057 73.9957 239.534 79.6433 242.999 84.1317C244.094 85.547 245.298 86.8473 246.597 88.016Z" fill="url(#paint2_linear)"/>
<path d="M171.059 76.4262C179.712 81.5205 186.202 89.1458 194.091 95.287C207.225 105.51 225.228 107.601 240.29 114.711C255.648 121.964 267.245 133.237 272.488 149.484C279.262 170.456 279.906 195.396 274.151 216.956C267.813 240.688 252.929 256.452 231.168 266.965C209.419 277.472 185.326 282.375 161.296 283.387C158.977 283.486 156.662 283.54 154.338 283.555C102.135 283.858 32.6502 265.483 14.8773 209.405C14.7144 208.892 14.5583 208.38 14.4017 207.86C12.5704 201.612 11.4936 195.168 11.1944 188.664C10.0765 165.607 14.1118 140.158 22.1954 118.544C27.6323 103.992 39.3397 91.6878 51.6763 82.9209C69.009 70.6044 90.1575 67.4611 111.206 65.9834C126.793 64.8898 144.323 64.4902 159.063 70.4522C163.205 72.141 167.215 74.1379 171.059 76.4262Z" fill="url(#paint3_linear)"/>
<path d="M73.3902 111.761C73.3902 111.761 126.466 182.628 139.743 188.488C153.024 194.351 169.672 193.031 171.128 199.829C172.584 206.631 143.255 195.126 147.934 205.618C152.612 216.114 170.846 228.094 170.932 238.66C171.021 249.23 141.917 215.973 141.917 215.973C141.917 215.973 169.339 246.4 160.259 247.119C151.175 247.839 127.688 218.091 127.688 218.091C127.688 218.091 153.961 257.115 145.251 253.55C136.546 249.986 55.8046 156.618 43.3535 146.738C30.9025 136.862 73.3902 111.761 73.3902 111.761Z" fill="#E27B5A"/>
<path d="M227.787 128.963C227.787 128.963 167.251 193.555 153.407 197.92C139.563 202.282 123.163 199.14 120.966 205.735C118.773 212.332 149.187 204.129 143.382 214.046C137.581 223.959 118.143 233.858 116.894 244.354C115.65 254.846 148.228 224.998 148.228 224.998C148.228 224.998 117.628 252.22 126.574 253.934C135.525 255.651 162.138 228.669 162.138 228.669C162.138 228.669 131.735 264.567 140.781 261.982C149.828 259.397 240.338 175.486 253.797 167.037C267.259 158.589 227.787 128.963 227.787 128.963Z" fill="#FFCEB0"/>
<path d="M176.25 173.813C176.25 173.813 194.869 209.07 211.985 212.821C229.099 216.572 266.071 183.105 274.138 166.528C282.208 149.954 242.877 99.7976 234.46 92.5836C222.301 91.0992 167.618 142.386 176.25 173.813Z" fill="#FB4C47"/>
<path d="M60.721 77.5544C60.721 77.5544 121.959 137.907 119.057 153.578C116.159 169.252 92.7756 188.027 73.917 194.175C55.0585 200.321 13.8298 175.564 13.8298 157.511C10.8234 126.851 26.4547 94.9884 60.721 77.5544Z" fill="#128E5A"/>
<defs>
<linearGradient id="paint0_linear" x1="11.2362" y1="233.747" x2="26.9514" y2="288.314" gradientUnits="userSpaceOnUse">
<stop stop-color="#FFD0D0"/>
<stop offset="1" stop-color="#FFF8F8"/>
</linearGradient>
<linearGradient id="paint1_linear" x1="304.772" y1="87.8231" x2="128.881" y2="47.2075" gradientUnits="userSpaceOnUse">
<stop stop-color="#FFF8F8"/>
<stop offset="1" stop-color="#FFD0D0"/>
</linearGradient>
<linearGradient id="paint2_linear" x1="267.458" y1="89.7556" x2="207.112" y2="63.9808" gradientUnits="userSpaceOnUse">
<stop stop-color="#FFD0D0"/>
<stop offset="1" stop-color="#FFF7F7"/>
</linearGradient>
<linearGradient id="paint3_linear" x1="253.838" y1="259.727" x2="11.2439" y2="119.241" gradientUnits="userSpaceOnUse">
<stop stop-color="#FFCFCF"/>
<stop offset="1" stop-color="#FFF8F8"/>
</linearGradient>
</defs>
</svg>
